<?xml version="1.0" standalone="no"?>
<!DOCTYPE svg PUBLIC "-//W3C//DTD SVG 20010904//EN"
 "http://www.w3.org/TR/2001/REC-SVG-20010904/DTD/svg10.dtd">
<svg version="1.0" xmlns="http://www.w3.org/2000/svg"
 width="195.000000pt" height="195.000000pt" viewBox="0 0 195.000000 195.000000"
 preserveAspectRatio="xMidYMid meet">
<metadata>
Created by potrace 1.11, written by Peter Selinger 2001-2013
</metadata>
<g transform="translate(0.000000,195.000000) scale(0.100000,-0.100000)"
fill="#000000" stroke="none">
<path d="M396 1381 c-12 -19 -306 -685 -306 -693 0 -4 56 -8 124 -8 l123 0 76
173 c42 94 83 189 92 210 8 20 19 37 24 37 9 0 31 -45 31 -65 0 -8 -28 -76
-61 -152 -34 -76 -68 -153 -75 -170 l-14 -33 125 0 126 0 15 36 15 36 27 -25
c48 -45 62 -47 262 -47 205 0 243 7 273 51 19 26 18 26 41 -18 l17 -33 119 0
c66 0 120 4 120 8 0 5 -34 84 -76 178 -75 167 -75 169 -60 201 9 18 19 33 23
33 5 0 49 -94 99 -208 l90 -207 128 -3 c73 -1 126 1 124 6 -1 5 -72 165 -157
356 l-154 346 -126 0 -127 0 -18 -36 -17 -37 -35 34 -35 34 -207 3 c-113 2
-216 1 -229 -3 -12 -3 -38 -19 -56 -35 l-34 -29 -16 34 -17 35 -124 0 c-69 0
-127 -4 -130 -9z m368 -293 c71 -150 137 -283 149 -295 27 -30 68 -37 110 -19
31 12 42 27 83 115 26 56 50 101 54 101 3 0 25 -46 50 -101 41 -95 43 -103 29
-128 -29 -52 -67 -61 -252 -61 -175 0 -216 8 -248 46 -14 18 -289 595 -289
608 0 3 42 6 93 6 l92 0 129 -272z m722 200 c-73 -158 -98 -208 -104 -208 -10
0 -82 181 -82 203 0 10 7 31 15 47 l16 30 94 0 94 0 -33 -72z m-462 -10 c24
-23 116 -212 116 -239 0 -8 -24 -61 -53 -119 -58 -117 -82 -139 -130 -121 -22
9 -38 33 -82 126 l-54 115 50 113 c66 148 98 174 153 125z"/>
</g>
</svg>
